# xmcd
# Copyright (C) 1995-1998 Ti Kan
#
# Track frame offsets:
#       150
#       679
#       1203
#       1749
#       2291
#       2976
#
# Disc length: 46 seconds
#
# Revision: 0
# Processed by: cddbd v1.5.2PL0 Copyright (c) Steve Scherf et al.
# Submitted via: CD-Import v1.0
#
DISCID=26002c06
DTITLE=Rosenstolz - 
DYEAR=08
DGENRE=
TTITLE0=Id 1
TTITLE1=Id 2
TTITLE2=Id 3
TTITLE3=Id 4
TTITLE4=Id 5
TTITLE5=Id 6
EXTD=
EXTT0=
EXTT1=
EXTT2=
EXTT3=
EXTT4=
EXTT5=
PLAYORDER=
